<svg width="24" height="24" viewBox="0 0 24 24" fill="none" xmlns="http://www.w3.org/2000/svg">
<mask id="mask0_1163_21088" style="mask-type:alpha" maskUnits="userSpaceOnUse" x="0" y="0" width="24" height="24">
<rect width="24" height="24" fill="red"/>
</mask>
<g mask="url(#mask0_1163_21088)">
<path fill-rule="evenodd" clip-rule="evenodd" d="M3.5875 20.4125C3.97917 20.8042 4.45 21 5 21H19C19.55 21 20.0208 20.8042 20.4125 20.4125C20.8042 20.0208 21 19.55 21 19V5C21 4.45 20.8042 3.97917 20.4125 3.5875C20.0208 3.19583 19.55 3 19 3H14.8C14.5833 2.4 14.2208 1.91667 13.7125 1.55C13.2042 1.18333 12.6333 1 12 1C11.3667 1 10.7958 1.18333 10.2875 1.55C9.77917 1.91667 9.41667 2.4 9.2 3H5C4.45 3 3.97917 3.19583 3.5875 3.5875C3.19583 3.97917 3 4.45 3 5V19C3 19.55 3.19583 20.0208 3.5875 20.4125ZM12.5375 4.0375C12.3958 4.17917 12.2167 4.25 12 4.25C11.7833 4.25 11.6042 4.17917 11.4625 4.0375C11.3208 3.89583 11.25 3.71667 11.25 3.5C11.25 3.28333 11.3208 3.10417 11.4625 2.9625C11.6042 2.82083 11.7833 2.75 12 2.75C12.2167 2.75 12.3958 2.82083 12.5375 2.9625C12.6792 3.10417 12.75 3.28333 12.75 3.5C12.75 3.71667 12.6792 3.89583 12.5375 4.0375ZM10.3198 13.3633L7.26978 16.4133L5.86978 15.0133L10.3198 10.5383L12.3198 12.5383L14.4448 10.4133H12.8698V8.41333H17.8698V13.4133H15.8698V11.8383L12.3198 15.3633L10.3198 13.3633Z" fill="red"/>
</g>
</svg>
